<svg width="24" height="24" viewBox="0 0 24 24" fill="none" xmlns="http://www.w3.org/2000/svg">
<g clip-path="url(#clip0_279_7950)">
<g filter="url(#filter0_ii_279_7950)">
<path d="M22.125 7.3125H1.875V22.125H22.125V7.3125Z" fill="url(#paint0_linear_279_7950)"/>
<path d="M22.125 7.3125H1.875V22.125H22.125V7.3125Z" fill="url(#paint1_linear_279_7950)" fill-opacity="0.2" style="mix-blend-mode:soft-light"/>
</g>
<g filter="url(#filter1_ddi_279_7950)">
<path fill-rule="evenodd" clip-rule="evenodd" d="M9.26876 9.1875C9.0889 9.1875 8.92693 9.29636 8.85901 9.46294L7.07512 13.8368C7.02179 13.9676 7.03406 14.1159 7.10813 14.2361C7.18219 14.3563 7.30918 14.4339 7.44992 14.4451L8.96248 14.5649L6.82233 19.6358C6.74456 19.8201 6.80006 20.0336 6.95771 20.1567C7.11537 20.2798 7.33598 20.2818 7.49587 20.1617L17.01 13.0119C17.1622 12.8976 17.2242 12.6986 17.1639 12.518C17.1035 12.3374 16.9345 12.2156 16.7441 12.2156H13.4312C13.4209 12.2156 13.4107 12.216 13.4006 12.2167L14.829 9.85931C14.9118 9.72272 14.9145 9.552 14.8361 9.41287C14.7577 9.27363 14.6104 9.1875 14.4505 9.1875H9.26876Z" fill="#F5E9FF"/>
</g>
<g filter="url(#filter2_ii_279_7950)">
<path fill-rule="evenodd" clip-rule="evenodd" d="M16.6875 0C17.7231 0 18.5625 0.839467 18.5625 1.875V4.5C18.5625 5.01776 18.9822 5.4375 19.5 5.4375H22.125C23.1606 5.4375 24 6.27697 24 7.3125V22.125C24 23.1606 23.1606 24 22.125 24H1.875C0.839467 24 0 23.1606 0 22.125V7.3125V5.90625V1.875C0 0.839466 0.839466 0 1.875 0H16.6875ZM2.8125 7.3125C2.29474 7.3125 1.875 7.73224 1.875 8.25V21.1872C1.875 21.705 2.29474 22.1247 2.8125 22.1247H21.1875C21.7053 22.1247 22.125 21.705 22.125 21.1872V8.25C22.125 7.73223 21.7053 7.3125 21.1875 7.3125H2.8125Z" fill="url(#paint2_linear_279_7950)"/>
<path fill-rule="evenodd" clip-rule="evenodd" d="M16.6875 0C17.7231 0 18.5625 0.839467 18.5625 1.875V4.5C18.5625 5.01776 18.9822 5.4375 19.5 5.4375H22.125C23.1606 5.4375 24 6.27697 24 7.3125V22.125C24 23.1606 23.1606 24 22.125 24H1.875C0.839467 24 0 23.1606 0 22.125V7.3125V5.90625V1.875C0 0.839466 0.839466 0 1.875 0H16.6875ZM2.8125 7.3125C2.29474 7.3125 1.875 7.73224 1.875 8.25V21.1872C1.875 21.705 2.29474 22.1247 2.8125 22.1247H21.1875C21.7053 22.1247 22.125 21.705 22.125 21.1872V8.25C22.125 7.73223 21.7053 7.3125 21.1875 7.3125H2.8125Z" fill="url(#paint3_linear_279_7950)" fill-opacity="0.2" style="mix-blend-mode:soft-light"/>
</g>
</g>
<defs>
<filter id="filter0_ii_279_7950" x="-0.172224" y="5.26528" width="24.3444" height="18.9069" filterUnits="userSpaceOnUse" color-interpolation-filters="sRGB">
<feFlood flood-opacity="0" result="BackgroundImageFix"/>
<feBlend mode="normal" in="SourceGraphic" in2="BackgroundImageFix" result="shape"/>
<feColorMatrix in="SourceAlpha" type="matrix" values="0 0 0 0 0 0 0 0 0 0 0 0 0 0 0 0 0 0 127 0" result="hardAlpha"/>
<feOffset dx="2.04722" dy="2.04722"/>
<feGaussianBlur stdDeviation="1.02361"/>
<feComposite in2="hardAlpha" operator="arithmetic" k2="-1" k3="1"/>
<feColorMatrix type="matrix" values="0 0 0 0 0 0 0 0 0 0 0 0 0 0 0 0 0 0 0.2 0"/>
<feBlend mode="normal" in2="shape" result="effect1_innerShadow_279_7950"/>
<feColorMatrix in="SourceAlpha" type="matrix" values="0 0 0 0 0 0 0 0 0 0 0 0 0 0 0 0 0 0 127 0" result="hardAlpha"/>
<feOffset dx="-2.04722" dy="-2.04722"/>
<feGaussianBlur stdDeviation="1.02361"/>
<feComposite in2="hardAlpha" operator="arithmetic" k2="-1" k3="1"/>
<feColorMatrix type="matrix" values="0 0 0 0 0 0 0 0 0 0 0 0 0 0 0 0 0 0 0.05 0"/>
<feBlend mode="normal" in2="effect1_innerShadow_279_7950" result="effect2_innerShadow_279_7950"/>
</filter>
<filter id="filter1_ddi_279_7950" x="-15.732" y="4.06944" width="55.4382" height="56.1019" filterUnits="userSpaceOnUse" color-interpolation-filters="sRGB">
<feFlood flood-opacity="0" result="BackgroundImageFix"/>
<feColorMatrix in="SourceAlpha" type="matrix" values="0 0 0 0 0 0 0 0 0 0 0 0 0 0 0 0 0 0 127 0" result="hardAlpha"/>
<feOffset dy="5.11806"/>
<feGaussianBlur stdDeviation="4.09445"/>
<feColorMatrix type="matrix" values="0 0 0 0 0 0 0 0 0 0 0 0 0 0 0 0 0 0 0.4 0"/>
<feBlend mode="normal" in2="BackgroundImageFix" result="effect1_dropShadow_279_7950"/>
<feColorMatrix in="SourceAlpha" type="matrix" values="0 0 0 0 0 0 0 0 0 0 0 0 0 0 0 0 0 0 127 0" result="hardAlpha"/>
<feOffset dy="17.4014"/>
<feGaussianBlur stdDeviation="11.2597"/>
<feColorMatrix type="matrix" values="0 0 0 0 0 0 0 0 0 0 0 0 0 0 0 0 0 0 0.2 0"/>
<feBlend mode="normal" in2="effect1_dropShadow_279_7950" result="effect2_dropShadow_279_7950"/>
<feBlend mode="normal" in="SourceGraphic" in2="effect2_dropShadow_279_7950" result="shape"/>
<feColorMatrix in="SourceAlpha" type="matrix" values="0 0 0 0 0 0 0 0 0 0 0 0 0 0 0 0 0 0 127 0" result="hardAlpha"/>
<feOffset dy="-3.07084"/>
<feGaussianBlur stdDeviation="2.55903"/>
<feComposite in2="hardAlpha" operator="arithmetic" k2="-1" k3="1"/>
<feColorMatrix type="matrix" values="0 0 0 0 0 0 0 0 0 0 0 0 0 0 0 0 0 0 0.3 0"/>
<feBlend mode="normal" in2="shape" result="effect3_innerShadow_279_7950"/>
</filter>
<filter id="filter2_ii_279_7950" x="-2.04722" y="-2.04722" width="28.0944" height="28.0944" filterUnits="userSpaceOnUse" color-interpolation-filters="sRGB">
<feFlood flood-opacity="0" result="BackgroundImageFix"/>
<feBlend mode="normal" in="SourceGraphic" in2="BackgroundImageFix" result="shape"/>
<feColorMatrix in="SourceAlpha" type="matrix" values="0 0 0 0 0 0 0 0 0 0 0 0 0 0 0 0 0 0 127 0" result="hardAlpha"/>
<feOffset dx="2.04722" dy="2.04722"/>
<feGaussianBlur stdDeviation="1.02361"/>
<feComposite in2="hardAlpha" operator="arithmetic" k2="-1" k3="1"/>
<feColorMatrix type="matrix" values="0 0 0 0 1 0 0 0 0 1 0 0 0 0 1 0 0 0 0.2 0"/>
<feBlend mode="normal" in2="shape" result="effect1_innerShadow_279_7950"/>
<feColorMatrix in="SourceAlpha" type="matrix" values="0 0 0 0 0 0 0 0 0 0 0 0 0 0 0 0 0 0 127 0" result="hardAlpha"/>
<feOffset dx="-2.04722" dy="-2.04722"/>
<feGaussianBlur stdDeviation="1.02361"/>
<feComposite in2="hardAlpha" operator="arithmetic" k2="-1" k3="1"/>
<feColorMatrix type="matrix" values="0 0 0 0 0 0 0 0 0 0 0 0 0 0 0 0 0 0 0.05 0"/>
<feBlend mode="normal" in2="effect1_innerShadow_279_7950" result="effect2_innerShadow_279_7950"/>
</filter>
<linearGradient id="paint0_linear_279_7950" x1="12" y1="7.3125" x2="12" y2="22.125" gradientUnits="userSpaceOnUse">
<stop stop-color="#6800CF"/>
<stop offset="1" stop-color="#5200A4"/>
</linearGradient>
<linearGradient id="paint1_linear_279_7950" x1="12" y1="7.3125" x2="12" y2="22.125" gradientUnits="userSpaceOnUse">
<stop offset="0.328125" stop-color="white"/>
<stop offset="1" stop-opacity="0.1"/>
</linearGradient>
<linearGradient id="paint2_linear_279_7950" x1="12" y1="0" x2="12" y2="24" gradientUnits="userSpaceOnUse">
<stop stop-color="#7703EA"/>
<stop offset="1" stop-color="#6902CF"/>
</linearGradient>
<linearGradient id="paint3_linear_279_7950" x1="12" y1="0" x2="12" y2="24" gradientUnits="userSpaceOnUse">
<stop offset="0.328125" stop-color="white"/>
<stop offset="1" stop-opacity="0.1"/>
</linearGradient>
<clipPath id="clip0_279_7950">
<rect width="24" height="24" fill="white"/>
</clipPath>
</defs>
</svg>
